<svg xmlns="http://www.w3.org/2000/svg" width="17.561" height="21.388" viewBox="0 0 17.561 21.388">
  <path id="Icon_awesome-apple" data-name="Icon awesome-apple" d="M14.964,13.552A4.476,4.476,0,0,1,17.3,9.5a4.982,4.982,0,0,0-3.952-2.13c-1.656-.134-3.466.988-4.129.988-.7,0-2.3-.941-3.564-.941-2.6.043-5.37,2.125-5.37,6.36a12.152,12.152,0,0,0,.672,3.877c.6,1.752,2.753,6.05,5,5.978,1.176-.029,2.006-.855,3.536-.855,1.484,0,2.253.855,3.564.855,2.267-.033,4.218-3.939,4.787-5.7a4.753,4.753,0,0,1-2.879-4.388ZM12.323,5.712a4.571,4.571,0,0,0,1.12-3.462,4.91,4.91,0,0,0-3.168,1.666A4.632,4.632,0,0,0,9.08,7.35a3.887,3.887,0,0,0,3.243-1.638Z" transform="translate(-0.281 -2.25)" fill="#cbcbcc"/>
</svg>
